<svg id="Capa_1" enable-background="new 0 0 512 512" height="512" viewBox="0 0 512 512" width="512" xmlns="http://www.w3.org/2000/svg"><g><g><path d="m116.673 402.108c-4.142 0-7.5-3.358-7.5-7.5v-109.303c0-4.142 3.358-7.5 7.5-7.5s7.5 3.358 7.5 7.5v109.303c0 4.142-3.358 7.5-7.5 7.5z" fill="#555a66"/></g><g><path d="m256.002 0c-96.722 0-175.131 78.409-175.131 175.131v76.356h350.262v-76.356c-.001-96.722-78.409-175.131-175.131-175.131z" fill="#636978"/></g><g><path d="m256 41.511c-11.463 0-20.755-9.293-20.755-20.755 0-11.463 9.292-20.756 20.754-20.756-96.721.001-175.128 78.409-175.128 175.131v76.356h175.129z" fill="#555a66"/></g><g><circle cx="443.69" cy="250.984" fill="#636978" r="41.207"/></g><g><circle cx="68.311" cy="250.984" fill="#636978" r="41.207"/></g><g><path d="m80.633 305.157h52.761v-108.346h-52.761c-5.69 0-10.302 4.612-10.302 10.302v87.741c0 5.69 4.612 10.303 10.302 10.303z" fill="#707789"/></g><g><path d="m433.387 305.157h-52.761v-108.346h52.761c5.69 0 10.302 4.612 10.302 10.302v87.741c0 5.69-4.613 10.303-10.302 10.303z" fill="#707789"/></g><g><path d="m132.737 251.487v-86.711c0-67.969 55.296-123.265 123.264-123.265 67.969 0 123.266 55.296 123.266 123.265v86.711z" fill="#90ee92"/></g><g><path d="m132.737 164.776v86.711h123.265v-28.124c-67.135-101.835-.001-181.852-.001-181.852-67.968 0-123.264 55.296-123.264 123.265z" fill="#61dd74"/></g><g><path d="m378.32 487.489c-11.388-57.149-61.825-100.219-122.322-100.219s-110.934 43.069-122.322 100.219c-2.53 12.696 7.29 24.511 20.235 24.511h204.173c12.946 0 22.766-11.815 20.236-24.511z" fill="#e0b8ff"/></g><g><path d="m285.398 390.761c-9.427-2.278-19.271-3.491-29.398-3.491-60.497 0-110.934 43.069-122.322 100.219-2.53 12.696 7.29 24.511 20.235 24.511h36.14c0-58.763 40.64-108.027 95.345-121.239z" fill="#d2a0f5"/></g><g><path d="m257.006 304.932c-81.513 0-129.91 64.123-129.91 90.065s84.119 73.505 129.91 73.505 129.91-47.564 129.91-73.505-48.397-90.065-129.91-90.065z" fill="#ebccff"/></g><g><path d="m255.537 468.479c-10.6-.248-19.121-8.9-19.121-19.56 0-10.816 8.768-19.583 19.583-19.583v-124.391c-80.903.527-128.904 64.218-128.904 90.052.001 25.668 82.348 72.496 128.442 73.482z" fill="#e0b8ff"/></g><g><path d="m297.466 394.338c-12.974-4.572-26.926-7.068-41.464-7.068-14.536 0-28.489 2.493-41.462 7.064 3.361 19.867 20.64 35.001 41.463 35.001 20.823.001 38.1-15.132 41.463-34.997z" fill="#ffcdbe"/></g><g><path d="m379.267 166.603c-1.181 5.334-5.638 21.812-18.095 36.225-5.085 5.883-14.587 4.309-17.429-2.929l-7.861-20.027s-33.217 43.49-79.88 43.49-79.88-43.49-79.88-43.49l-7.861 20.027c-2.841 7.238-12.344 8.812-17.429 2.929-12.464-14.421-16.919-30.908-18.097-36.234-16.469 24.011-26.113 53.07-26.113 84.386 0 82.498 66.878 149.376 149.376 149.376s149.376-66.878 149.376-149.376c.001-31.311-9.641-60.368-26.107-84.377z" fill="#ffeee5"/></g><g><g><path d="m158.133 250.981c0-16.586 2.711-32.536 7.701-47.442-4.051 3.918-10.935 3.994-15.002-.711-12.462-14.419-16.918-30.904-18.096-36.232-16.469 24.01-26.112 53.069-26.112 84.384 0 82.498 66.878 149.376 149.376 149.376 8.783 0 17.387-.765 25.755-2.219-70.224-12.204-123.622-73.441-123.622-147.156z" fill="#ffdecf"/></g></g><g><path d="m397.331 344.076h-61.811c-17.069 0-30.905 13.837-30.905 30.905 0 17.069 13.837 30.905 30.905 30.905h61.811c17.069 0 30.905-13.837 30.905-30.905.001-17.068-13.836-30.905-30.905-30.905z" fill="#dce1eb"/></g><g><path d="m304.615 374.982h123.622v82.414h-123.622z" fill="#e9edf5"/></g><g><path d="m429.029 374.988c25.418.424 45.566 21.693 45.566 47.115v66.718c0 12.801-10.378 23.179-23.179 23.179-12.801 0-23.179-10.378-23.179-23.179v-.92c0-10.41-6.625-19.499-16.365-23.174-17.527-6.614-29.994-23.545-29.994-43.387.001-25.867 21.186-46.785 47.151-46.352z" fill="#f2f6fc"/></g><g><path d="m303.822 374.988c-25.418.424-45.566 21.693-45.566 47.115v66.718c0 12.801 10.378 23.179 23.179 23.179 12.801 0 23.179-10.378 23.179-23.179v-.92c0-10.41 6.625-19.499 16.365-23.174 17.527-6.614 29.994-23.545 29.994-43.387 0-25.867-21.185-46.785-47.151-46.352z" fill="#f2f6fc"/></g><g><g><g><ellipse cx="173.951" cy="289.065" fill="#ffa1ac" rx="30.274" ry="24.109"/></g><g><ellipse cx="338.049" cy="289.065" fill="#ffa1ac" rx="30.274" ry="24.109"/></g><g><path d="m280.409 270.541c0-15.085-10.928-16.502-24.409-16.502s-24.409 1.417-24.409 16.502 10.928 27.313 24.409 27.313 24.409-12.228 24.409-27.313z" fill="#495560"/></g></g><g><path d="m179.013 267.782c-4.142 0-7.5-3.358-7.5-7.5v-12.362c0-4.142 3.358-7.5 7.5-7.5s7.5 3.358 7.5 7.5v12.362c0 4.142-3.358 7.5-7.5 7.5z" fill="#495560"/></g><g><path d="m332.988 267.782c-4.142 0-7.5-3.358-7.5-7.5v-12.362c0-4.142 3.358-7.5 7.5-7.5s7.5 3.358 7.5 7.5v12.362c0 4.142-3.358 7.5-7.5 7.5z" fill="#495560"/></g></g><g><circle cx="116.673" cy="395.585" fill="#636978" r="20.604"/></g><g fill="#cdd2e1"><path d="m320.068 413.84h-7.953v-7.953c0-4.142-3.358-7.5-7.5-7.5s-7.5 3.358-7.5 7.5v7.953h-7.953c-4.142 0-7.5 3.358-7.5 7.5s3.358 7.5 7.5 7.5h7.953v7.953c0 4.142 3.358 7.5 7.5 7.5s7.5-3.358 7.5-7.5v-7.953h7.953c4.142 0 7.5-3.358 7.5-7.5s-3.358-7.5-7.5-7.5z"/><path d="m443.689 413.84h-7.953v-7.953c0-4.142-3.358-7.5-7.5-7.5s-7.5 3.358-7.5 7.5v7.953h-7.953c-4.142 0-7.5 3.358-7.5 7.5s3.358 7.5 7.5 7.5h7.953v7.953c0 4.142 3.358 7.5 7.5 7.5s7.5-3.358 7.5-7.5v-7.953h7.953c4.142 0 7.5-3.358 7.5-7.5s-3.357-7.5-7.5-7.5z"/></g><g><path d="m217.672 493.543c-1.748 0-3.503-.607-4.925-1.846-7.556-6.585-11.89-16.101-11.89-26.107s4.333-19.522 11.89-26.107c3.123-2.721 7.86-2.396 10.582.727 2.721 3.123 2.396 7.86-.727 10.582-4.287 3.735-6.745 9.129-6.745 14.799s2.458 11.063 6.745 14.799c3.123 2.722 3.448 7.459.727 10.582-1.482 1.7-3.564 2.571-5.657 2.571z" fill="#fff"/></g></g></svg>