<svg id="Capa_1" enable-background="new 0 0 512 512" height="512" viewBox="0 0 512 512" width="512" xmlns="http://www.w3.org/2000/svg"><g><g><path d="m155.234 234.984c-1.493 0-3.007-.334-4.437-1.039-4.978-2.455-7.023-8.48-4.569-13.458 7.885-15.991 21.096-20.08 22.576-20.494 0 0 9.613-3.632 12.756 5.685 3.324 9.854-7.275 13.657-7.139 13.612-.253.084-6.25 2.144-10.167 10.086-1.748 3.549-5.313 5.607-9.02 5.608z"/><path d="m469.927 137.738 8.256 23.213c.353.994 1.053 1.781 1.936 2.179l20.624 9.292c2.914 1.313 2.914 5.955 0 7.268l-20.624 9.292c-.883.398-1.583 1.185-1.936 2.179l-8.256 23.213c-1.166 3.279-5.291 3.279-6.457 0l-8.255-23.213c-.354-.994-1.053-1.781-1.936-2.179l-20.624-9.292c-2.914-1.313-2.914-5.955 0-7.268l20.624-9.292c.883-.398 1.583-1.185 1.936-2.179l8.255-23.213c1.166-3.28 5.29-3.28 6.457 0z"/><path d="m324.553 68.397 6.124 17.219c.262.737.781 1.321 1.436 1.617l15.299 6.893c2.161.974 2.161 4.417 0 5.391l-15.299 6.893c-.655.295-1.174.879-1.436 1.617l-6.124 17.219c-.865 2.433-3.925 2.433-4.79 0l-6.124-17.219c-.262-.737-.781-1.322-1.436-1.617l-15.298-6.893c-2.161-.974-2.161-4.417 0-5.391l15.298-6.893c.655-.295 1.174-.879 1.436-1.617l6.124-17.219c.866-2.433 3.925-2.433 4.79 0z"/><ellipse cx="423.344" cy="72.828" rx="12.248" ry="12.248" transform="matrix(.973 -.23 .23 .973 -5.408 99.212)"/><path d="m258.101 40.981c0 5.254-4.259 9.513-9.513 9.513s-9.513-4.259-9.513-9.513 4.259-9.513 9.513-9.513c5.253.001 9.513 4.26 9.513 9.513z"/></g><g><path d="m448.431 301.81c-22.531-19.374-50.127-32.739-80.17-39.231-1.62-11.893-6.86-32.172-23.797-41.996-2.96-1.717-6.116-3.002-9.443-3.899-.517-7.778-2.234-14.652-3.674-19.227-2.167-6.883-8.293-23.267-18.343-26.725-9.381-3.232-23.011 4.533-29.613 8.907-4.104-8.582-9.84-16.079-17.854-20.757-11.168-6.519-24.543-6.578-39.885-.251-1.913-3.7-4.48-7.173-7.909-10.235-5.157-16.978-12.78-35.427-23.253-56.275-2.538-5.577-8.613-8.651-14.648-7.348-5.973 1.293-10.204 6.507-10.298 12.553-1.423 20.956-.966 35.985 1.481 48.059-4.376 12.742-3.592 25.229 2.324 37.178-6.76-6.937-14.441-11.688-19.511-14.371-6.326-3.348-22.069-10.636-31.594-6.066-9.525 4.574-13.676 21.419-15.019 28.448-1.69 8.85-3.459 25.919 3.691 40.81.894 1.862 1.861 3.629 2.883 5.321-1.599 1.209-3.261 2.325-4.991 3.324-5.491 3.171-8.429 9.05-7.666 15.343.471 3.888 2.277 7.282 5.022 9.729-.703 1.616-1.356 3.227-1.936 4.821-6.314 17.365-10.035 39.222-11.318 47.623-20.91 21.342-28.104 50.371-18.748 76.569 5.915 16.561 16.732 30.462 31.6 40.76-11.393 6.721-19.058 19.117-19.058 33.275v5.235c0 21.292 17.323 38.614 38.614 38.614h52.924c8.462 0 16.292-2.744 22.662-7.378 9.63 4.571 20.332 7.062 31.417 7.062h187.062c5.268 0 10.448-.571 15.471-1.651 6.404-1.231 11.837-3.273 16.663-5.755 13.063-6.372 24.099-16.588 31.332-29.633 11.372-20.506 17.138-42.527 17.138-65.449.001-40.659-18.309-78.796-51.556-107.384zm-99.548-30.053c-.008 4.961 3.653 9.193 8.555 9.953.234.036 23.625 3.868 35.578 23.175 11.854 19.149 1.104 48.923-3.936 57.029-6.767 10.888-16.793 19.234-29.799 24.809-7.657 3.281-18.808 5.46-27.414 6.767 3.048-12.982 4.416-27.003 4.421-44.336l.901-48.883c.001-.062.002-.124.002-.185 0-16.42-4.187-32.344-12.17-46.49 3.017-4.315 5.495-9.271 7.403-14.812.179-.521.322-1.045.482-1.567.484.224.962.46 1.425.727 11.853 6.828 14.523 26.743 14.552 33.813zm-93.489-95.522c5.413 3.153 9.266 9.544 11.983 17.157-3.402 3.806-6.639 8.232-9.134 13.252-5.212-.878-10.503-1.32-15.812-1.32h-1.751c-2.378-5.909-5.654-11.21-9.839-15.856.068-.441.118-.887.127-1.345.06-3.129.024-6.433-.232-9.795 10.383-4.858 18.662-5.585 24.658-2.093zm-34.668 21.743h.033l1.076.36c.323.108.649.186.974.238 5.183 6.141 8.396 13.602 9.73 22.585l-14.403-4.244c-2.965-10.894-9.675-20.076-19.148-26.223l16.028 5.363c1.608 1.169 3.573 1.88 5.71 1.921zm-.986 31.984 11.682 3.442c-2.34 2.294-6.753 4.877-13.083 6.761.844-3.335 1.321-6.757 1.401-10.203zm-23.949-84.098-4.434-1.499c-.028-.16-.057-.32-.093-.479-.01-.043-.014-.085-.024-.127-1.127-4.671-1.777-9.93-2.109-15.346 2.517 6.038 4.728 11.84 6.66 17.451zm-6.942 10.383 12.197 4.124c.578.749 1.264 1.414 2.024 1.975 4.929 3.594 7.295 9.456 7.738 19.584l-18.543-6.205c-.165-.494-.359-.984-.607-1.462-3.097-5.959-4.027-11.804-2.809-18.016zm-57.592 24.65c4.282.714 12.182 3.87 19.518 8.879-4.787 2.837-9.112 6.576-12.675 11.176-2.813 3.633-5.053 7.627-6.66 11.873-.972 2.569-2.129 5.035-3.437 7.391-5.03-13.761-.36-32.86 3.254-39.319zm-16.418 69.578c12.587-7.268 22.489-19.124 27.881-33.384 1.182-3.124 2.835-6.07 4.915-8.755 10.133-13.086 28.622-16.793 43.006-8.619 8.256 4.691 13.996 12.332 16.164 21.515 2.139 9.058.395 18.685-4.784 26.412-8.731 13.029-23.598 20.501-39.757 19.984-6.927-.22-23.492-4.041-46.642-10.758-2.011-.583-2.423-2.255-2.507-2.946-.084-.69-.083-2.405 1.724-3.449zm-8.033 222.911v-5.235c0-10.208 8.305-18.514 18.514-18.514h29.341v42.263h-29.341c-10.209 0-18.514-8.305-18.514-18.514zm59.915 18.514v-42.263h11.523c10.208 0 18.513 8.305 18.513 18.514v5.235c0 10.209-8.305 18.514-18.513 18.514zm71.864-.637c-10.209 0-18.514-8.305-18.514-18.514v-5.235c0-10.208 8.305-18.514 18.514-18.514h11.523v42.263zm119.656-23.866c0-13.129 10.681-23.81 23.811-23.81h4.984v47.621h-4.984c-13.13 0-23.811-10.682-23.811-23.811zm107.031-2.499c-14.625 26.005-39.416 27.667-66.177 26.31v-47.621h1.254c5.55 0 10.05-4.499 10.05-10.05s-4.5-10.05-10.05-10.05h-18.298c-24.212 0-43.911 19.698-43.911 43.91 0 8.933 2.687 17.246 7.287 24.187h-20.229c3.13-5.576 4.924-11.999 4.924-18.835 0-5.551-4.5-10.05-10.05-10.05s-10.05 4.499-10.05 10.05c0 10.208-8.305 18.514-18.514 18.514h-29.34v-42.263h29.34c5.55 0 10.05-4.5 10.05-10.05 0-5.551-4.5-10.05-10.05-10.05h-52.923c-12.345 0-23.348 5.83-30.421 14.874-7.087-8.681-17.865-14.237-29.919-14.237h-34.438c-6.522-1.41-12.808-3.37-17.845-5.954-16.191-8.305-27.25-20.494-32.869-36.228-7.003-19.606-.808-41.713 16.165-57.692 1.681-1.583 2.767-3.698 3.073-5.987.036-.272 3.725-27.456 10.788-46.883.413-1.135 1.055-2.763 1.945-4.734 17.812 4.849 30.172 7.411 36.817 7.623.656.021 1.306.031 1.959.031 19.586 0 37.495-9.382 48.2-25.355.12-.179.228-.365.345-.546 1.275-.19 2.535-.409 3.762-.667 13.937-2.922 29.84-10.869 29.266-23.688-.091-1.332-.247-2.658-.303-3.983 5.682.202 11.315 1.043 16.78 2.514 5.278 1.422 10.726-1.638 12.259-6.887.207-.708.425-1.42.673-2.139 5.083-14.772 23.801-26.402 31.411-28.56 4.671 6.384 12.268 27.069 7.186 41.84-1.919 5.574-4.572 10.109-7.884 13.48-3.349 3.409-3.836 8.704-1.163 12.665 8.304 12.309 12.702 26.696 12.72 41.609l-.901 48.877c-.001.061-.002.123-.002.185 0 21.727-2.279 37.455-7.62 52.59-1.847 5.234.898 10.975 6.132 12.822 1.288.454 2.607.627 3.891.556.47.068.947.114 1.434.114.292 0 .586-.013.882-.038 1.188-.103 29.274-2.612 46.291-9.905 16.863-7.227 29.969-18.221 38.951-32.672 7.49-12.047 18.446-44.699 7.731-70.784 39.871 23.703 66.005 63.025 66.005 107.455.002 19.472-4.915 38.213-14.614 55.702z"/><path d="m136.262 333.509c-3.037 0-5.649-2.288-5.987-5.377-.361-3.31 2.031-6.287 5.341-6.648l20.154-2.198c3.304-.357 6.288 2.03 6.648 5.341.361 3.31-2.031 6.287-5.341 6.648l-20.154 2.198c-.221.024-.442.036-.661.036z"/><path d="m264.37 333.509c-.219 0-.44-.012-.661-.036l-20.154-2.198c-3.311-.361-5.702-3.338-5.341-6.648.361-3.311 3.356-5.698 6.648-5.341l20.154 2.198c3.31.361 5.702 3.338 5.341 6.648-.337 3.089-2.95 5.377-5.987 5.377z"/><path d="m68.698 217.861h-26.211c-3.687 0-7.079-2.019-8.836-5.261s-1.598-7.186.416-10.275l15.477-23.755h-6.252c-5.55 0-10.05-4.499-10.05-10.05s4.5-10.05 10.05-10.05h24.795c3.687 0 7.079 2.019 8.836 5.261s1.598 7.186-.416 10.275l-15.477 23.756h7.668c5.55 0 10.05 4.499 10.05 10.05 0 5.55-4.5 10.049-10.05 10.049z"/><path d="m119.099 136.632h-30.838c-3.687 0-7.079-2.019-8.836-5.262-1.757-3.242-1.598-7.186.416-10.275l19.996-30.69h-10.628c-5.55 0-10.05-4.499-10.05-10.05 0-5.55 4.5-10.05 10.05-10.05h29.172c3.687 0 7.079 2.019 8.836 5.262 1.757 3.242 1.598 7.186-.415 10.275l-19.997 30.69h12.295c5.55 0 10.05 4.499 10.05 10.05-.001 5.55-4.501 10.05-10.051 10.05z"/><path d="m55.942 75.293h-36.82c-3.687 0-7.079-2.019-8.836-5.262-1.757-3.242-1.598-7.186.416-10.275l25.839-39.656h-16.286c-5.55 0-10.05-4.499-10.05-10.05s4.5-10.05 10.05-10.05h34.83c3.687 0 7.079 2.019 8.836 5.261s1.598 7.186-.416 10.275l-25.839 39.657h18.277c5.55 0 10.05 4.5 10.05 10.05-.001 5.55-4.501 10.05-10.051 10.05z"/><path d="m194.596 375.879c-10.097 0-18.311-8.696-18.311-19.384 0-3.33 2.7-6.03 6.03-6.03s6.03 2.7 6.03 6.03c0 4.039 2.804 7.324 6.251 7.324s6.252-3.285 6.252-7.324c0-3.33 2.7-6.03 6.03-6.03s6.03 2.7 6.03 6.03c0 10.688-8.215 19.384-18.312 19.384z"/></g></g></svg>